<?xml version="1.0" encoding="UTF-8"?>
<svg id="Layer_1" data-name="Layer 1" xmlns="http://www.w3.org/2000/svg" viewBox="0 0 193.5 28.02">
  <defs>
    <style>
      .cls-1 {
        fill: #0082fa;
        stroke-width: 0px;
      }
    </style>
  </defs>
  <path class="cls-1" d="m6.25,22.03V6.28l-3.61,3.68L0,7.19,6.83.33h4.04v21.71h-4.62Z"/>
  <path class="cls-1" d="m22.49,11.2c0-5.6,2.77-11.2,8.98-11.2s8.98,5.6,8.98,11.2-2.77,11.23-8.98,11.23-8.98-5.63-8.98-11.23Zm13.25,0c0-4-1.14-7.1-4.26-7.1s-4.26,3.09-4.26,7.1,1.17,7.13,4.26,7.13,4.26-3.12,4.26-7.13Z"/>
  <path class="cls-1" d="m42.68,11.2c0-5.6,2.77-11.2,8.98-11.2s8.98,5.6,8.98,11.2-2.77,11.23-8.98,11.23-8.98-5.63-8.98-11.23Zm13.25,0c0-4-1.14-7.1-4.26-7.1s-4.26,3.09-4.26,7.1,1.17,7.13,4.26,7.13,4.26-3.12,4.26-7.13Z"/>
  <path class="cls-1" d="m62.86,11.2c0-5.6,2.77-11.2,8.98-11.2s8.98,5.6,8.98,11.2-2.77,11.23-8.98,11.23-8.98-5.63-8.98-11.23Zm13.25,0c0-4-1.14-7.1-4.26-7.1s-4.26,3.09-4.26,7.1,1.17,7.13,4.26,7.13,4.26-3.12,4.26-7.13Z"/>
  <path class="cls-1" d="m91.41,11.2c0-5.6,2.77-11.2,8.98-11.2s8.98,5.6,8.98,11.2-2.77,11.23-8.98,11.23-8.98-5.63-8.98-11.23Zm13.25,0c0-4-1.14-7.1-4.26-7.1s-4.26,3.09-4.26,7.1,1.17,7.13,4.26,7.13,4.26-3.12,4.26-7.13Z"/>
  <path class="cls-1" d="m111.59,11.2c0-5.6,2.77-11.2,8.98-11.2s8.98,5.6,8.98,11.2-2.77,11.23-8.98,11.23-8.98-5.63-8.98-11.23Zm13.25,0c0-4-1.14-7.1-4.26-7.1s-4.26,3.09-4.26,7.1,1.17,7.13,4.26,7.13,4.26-3.12,4.26-7.13Z"/>
  <path class="cls-1" d="m131.78,11.2c0-5.6,2.77-11.2,8.98-11.2s8.98,5.6,8.98,11.2-2.77,11.23-8.98,11.23-8.98-5.63-8.98-11.23Zm13.25,0c0-4-1.14-7.1-4.26-7.1s-4.26,3.09-4.26,7.1,1.17,7.13,4.26,7.13,4.26-3.12,4.26-7.13Z"/>
  <path class="cls-1" d="m165.41,20.02v8.01h-4.13V6.31h4.13v1.99c1.2-1.53,2.93-2.38,4.85-2.38,4.04,0,6.97,3,6.97,8.23s-2.93,8.27-6.97,8.27c-1.85,0-3.55-.78-4.85-2.41Zm7.55-5.86c0-2.7-1.63-4.56-4-4.56-1.33,0-2.83.75-3.55,1.79v5.53c.68,1.01,2.21,1.82,3.55,1.82,2.38,0,4-1.86,4-4.59Z"/>
  <path class="cls-1" d="m188.88,22.03l-3.58-5.3-3.61,5.3h-4.59l5.6-8.07-5.27-7.65h4.62l3.25,4.82,3.22-4.82h4.62l-5.24,7.65,5.6,8.07h-4.62Z"/>
</svg>