<?xml version="1.0" encoding="UTF-8"?>
<svg id="Layer_1" data-name="Layer 1" xmlns="http://www.w3.org/2000/svg" xmlns:xlink="http://www.w3.org/1999/xlink" viewBox="0 0 1001 59">
  <defs>
    <style>
      .cls-1 {
        fill: url(#linear-gradient);
      }

      .cls-1, .cls-2 {
        stroke-width: 0px;
      }

      .cls-2 {
        fill: #132353;
      }
    </style>
    <linearGradient id="linear-gradient" x1="0" y1="29.5" x2="1001" y2="29.5" gradientUnits="userSpaceOnUse">
      <stop offset="0" stop-color="#0082fa"/>
      <stop offset="1" stop-color="#00f2fe"/>
    </linearGradient>
  </defs>
  <path class="cls-1" d="m941.94,0H59.06C26.44,0,0,26.42,0,59h0s1001,0,1001,0h0c0-32.58-26.44-59-59.06-59Z"/>
  <g>
    <path class="cls-2" d="m426.97,39v-19.35h10.18c3.68,0,5.57,2.35,5.57,4.93,0,2.41-1.51,4.06-3.34,4.44,2.09.32,3.71,2.32,3.71,4.73,0,2.93-1.91,5.25-5.63,5.25h-10.5Zm11.54-13.69c0-1.19-.87-2.03-2.26-2.03h-5.16v4.06h5.16c1.39,0,2.26-.78,2.26-2.03Zm.38,7.86c0-1.22-.87-2.2-2.47-2.2h-5.34v4.41h5.34c1.54,0,2.47-.81,2.47-2.2Z"/>
    <path class="cls-2" d="m447.62,31.26v-11.6h4.18v11.49c0,2.7,1.57,4.55,4.55,4.55s4.52-1.86,4.52-4.55v-11.49h4.21v11.6c0,4.79-2.84,8.09-8.73,8.09s-8.73-3.31-8.73-8.09Z"/>
    <path class="cls-2" d="m475.72,39v-7.92l-7.43-11.43h4.7l4.79,7.74,4.79-7.74h4.67l-7.4,11.43v7.92h-4.12Z"/>
    <path class="cls-2" d="m512.58,39v-8.15h-9.14v8.15h-4.12v-19.35h4.12v7.6h9.14v-7.6h4.15v19.35h-4.15Z"/>
    <path class="cls-2" d="m521.94,39v-19.35h13.69v3.63h-9.57v4.06h9.37v3.63h-9.37v4.41h9.57v3.63h-13.69Z"/>
    <path class="cls-2" d="m551.21,39l-3.8-6.87h-3.02v6.87h-4.12v-19.35h9.05c4.03,0,6.53,2.64,6.53,6.24,0,3.39-2.18,5.25-4.26,5.74l4.38,7.37h-4.76Zm.41-13.14c0-1.6-1.25-2.58-2.87-2.58h-4.35v5.22h4.35c1.62,0,2.87-.99,2.87-2.64Z"/>
    <path class="cls-2" d="m560.34,39v-19.35h13.69v3.63h-9.57v4.06h9.37v3.63h-9.37v4.41h9.57v3.63h-13.69Z"/>
  </g>
</svg>