<?xml version="1.0" encoding="UTF-8"?>
<svg id="Layer_1" data-name="Layer 1" xmlns="http://www.w3.org/2000/svg" viewBox="0 0 284.65 28.45">
  <defs>
    <style>
      .cls-1 {
        fill: #0082fa;
        stroke-width: 0px;
      }
    </style>
  </defs>
  <path class="cls-1" d="m0,11.23C0,4.52,5.04,0,11.59,0c4.75,0,7.52,2.57,9.05,5.3l-3.97,1.95c-.91-1.76-2.86-3.16-5.08-3.16-3.97,0-6.83,3.03-6.83,7.13s2.86,7.13,6.83,7.13c2.21,0,4.17-1.4,5.08-3.16l3.97,1.92c-1.53,2.7-4.3,5.34-9.05,5.34C5.04,22.46,0,17.9,0,11.23Z"/>
  <path class="cls-1" d="m23.31,22.07V6.35h4.13v2.12c1.14-1.37,3.06-2.51,5.01-2.51v4.04c-.29-.07-.65-.1-1.14-.1-1.37,0-3.19.78-3.87,1.79v10.38h-4.13Z"/>
  <path class="cls-1" d="m34.02,14.19c0-4.56,3.38-8.23,8.14-8.23s7.88,3.52,7.88,8.62v.98h-11.68c.29,1.92,1.86,3.52,4.52,3.52,1.33,0,3.16-.55,4.17-1.53l1.85,2.73c-1.56,1.43-4.04,2.18-6.48,2.18-4.78,0-8.4-3.22-8.4-8.27Zm8.14-4.85c-2.57,0-3.68,1.79-3.84,3.35h7.75c-.13-1.5-1.17-3.35-3.91-3.35Z"/>
  <path class="cls-1" d="m62.47,22.07v-1.66c-1.07,1.3-2.93,2.05-4.98,2.05-2.51,0-5.44-1.69-5.44-5.21,0-3.71,2.93-5.08,5.44-5.08,2.12,0,3.94.68,4.98,1.92v-1.98c0-1.6-1.37-2.64-3.45-2.64-1.66,0-3.22.65-4.52,1.86l-1.63-2.9c1.92-1.73,4.39-2.47,6.87-2.47,3.61,0,6.9,1.43,6.9,5.96v10.15h-4.17Zm0-3.78v-1.95c-.68-.91-1.99-1.4-3.32-1.4-1.63,0-2.96.88-2.96,2.38s1.33,2.34,2.96,2.34c1.33,0,2.64-.46,3.32-1.37Z"/>
  <path class="cls-1" d="m71.55,18.13v-8.17h-2.6v-3.61h2.6V2.05h4.13v4.3h3.19v3.61h-3.19v7.06c0,1.01.52,1.76,1.43,1.76.62,0,1.2-.23,1.43-.49l.88,3.16c-.62.55-1.73,1.01-3.45,1.01-2.9,0-4.43-1.5-4.43-4.33Z"/>
  <path class="cls-1" d="m80.7,14.19c0-4.56,3.39-8.23,8.14-8.23s7.88,3.52,7.88,8.62v.98h-11.68c.29,1.92,1.86,3.52,4.52,3.52,1.33,0,3.16-.55,4.17-1.53l1.85,2.73c-1.56,1.43-4.04,2.18-6.48,2.18-4.78,0-8.4-3.22-8.4-8.27Zm8.14-4.85c-2.57,0-3.68,1.79-3.84,3.35h7.75c-.13-1.5-1.17-3.35-3.91-3.35Z"/>
  <path class="cls-1" d="m108.14,24.51c.36.16.91.26,1.3.26,1.07,0,1.79-.29,2.18-1.14l.59-1.37-6.38-15.92h4.43l4.1,10.94,4.13-10.94h4.43l-7.39,18.29c-1.17,2.96-3.25,3.74-5.96,3.81-.46,0-1.53-.1-2.02-.26l.59-3.68Z"/>
  <path class="cls-1" d="m123.77,14.19c0-4.46,3.12-8.23,8.3-8.23s8.33,3.78,8.33,8.23-3.12,8.27-8.33,8.27-8.3-3.81-8.3-8.27Zm12.33,0c0-2.44-1.43-4.56-4.04-4.56s-4,2.12-4,4.56,1.43,4.59,4,4.59,4.04-2.12,4.04-4.59Z"/>
  <path class="cls-1" d="m154.11,22.07v-1.99c-1.07,1.17-2.96,2.38-5.53,2.38-3.45,0-5.08-1.89-5.08-4.95V6.35h4.13v9.54c0,2.18,1.14,2.9,2.9,2.9,1.59,0,2.86-.88,3.58-1.79V6.35h4.13v15.72h-4.13Z"/>
  <path class="cls-1" d="m162.35,22.07V6.35h4.13v2.12c1.14-1.37,3.06-2.51,5.01-2.51v4.04c-.29-.07-.65-.1-1.14-.1-1.37,0-3.19.78-3.87,1.79v10.38h-4.13Z"/>
  <path class="cls-1" d="m182.33,22.07V.36h4.65v17.64h9.18v4.07h-13.83Z"/>
  <path class="cls-1" d="m197.83,14.19c0-4.56,3.38-8.23,8.14-8.23s7.88,3.52,7.88,8.62v.98h-11.68c.29,1.92,1.86,3.52,4.52,3.52,1.33,0,3.16-.55,4.17-1.53l1.85,2.73c-1.56,1.43-4.04,2.18-6.48,2.18-4.78,0-8.4-3.22-8.4-8.27Zm8.14-4.85c-2.57,0-3.68,1.79-3.84,3.35h7.75c-.13-1.5-1.17-3.35-3.91-3.35Z"/>
  <path class="cls-1" d="m216.52,26.1l1.86-2.96c1.27,1.37,2.96,1.92,4.92,1.92s4.36-.85,4.36-4.04v-1.53c-1.24,1.56-2.93,2.44-4.88,2.44-3.91,0-6.93-2.73-6.93-7.97s2.96-8.01,6.93-8.01c1.89,0,3.61.78,4.88,2.41v-2.02h4.13v14.68c0,5.96-4.62,7.42-8.49,7.42-2.67,0-4.79-.62-6.77-2.34Zm11.13-9.6v-5.11c-.72-1.01-2.21-1.76-3.55-1.76-2.38,0-4,1.63-4,4.33s1.63,4.33,4,4.33c1.33,0,2.83-.78,3.55-1.79Z"/>
  <path class="cls-1" d="m245.32,22.07v-1.66c-1.07,1.3-2.93,2.05-4.98,2.05-2.51,0-5.44-1.69-5.44-5.21,0-3.71,2.93-5.08,5.44-5.08,2.12,0,3.94.68,4.98,1.92v-1.98c0-1.6-1.37-2.64-3.45-2.64-1.66,0-3.22.65-4.52,1.86l-1.63-2.9c1.92-1.73,4.39-2.47,6.87-2.47,3.61,0,6.9,1.43,6.9,5.96v10.15h-4.17Zm0-3.78v-1.95c-.68-.91-1.99-1.4-3.32-1.4-1.63,0-2.96.88-2.96,2.38s1.33,2.34,2.96,2.34c1.33,0,2.64-.46,3.32-1.37Z"/>
  <path class="cls-1" d="m252.55,14.19c0-4.82,3.52-8.23,8.33-8.23,3.22,0,5.18,1.4,6.22,2.83l-2.7,2.54c-.75-1.11-1.89-1.69-3.32-1.69-2.51,0-4.26,1.82-4.26,4.56s1.76,4.59,4.26,4.59c1.43,0,2.57-.65,3.32-1.72l2.7,2.54c-1.04,1.43-2.99,2.86-6.22,2.86-4.82,0-8.33-3.42-8.33-8.27Z"/>
  <path class="cls-1" d="m269.87,24.51c.36.16.91.26,1.3.26,1.07,0,1.79-.29,2.18-1.14l.59-1.37-6.38-15.92h4.43l4.1,10.94,4.13-10.94h4.43l-7.39,18.29c-1.17,2.96-3.25,3.74-5.96,3.81-.46,0-1.53-.1-2.02-.26l.59-3.68Z"/>
</svg>