<?xml version="1.0" encoding="UTF-8"?>
<svg id="Layer_1" data-name="Layer 1" xmlns="http://www.w3.org/2000/svg" xmlns:xlink="http://www.w3.org/1999/xlink" viewBox="0 0 355.26 355.26">
  <defs>
    <style>
      .cls-1 {
        fill: url(#linear-gradient);
      }

      .cls-1, .cls-2, .cls-3, .cls-4 {
        stroke-width: 0px;
      }

      .cls-2 {
        fill: url(#linear-gradient-2);
      }

      .cls-3 {
        fill: url(#linear-gradient-3);
      }

      .cls-4 {
        fill: #0082fa;
      }
    </style>
    <linearGradient id="linear-gradient" x1="160.7" y1="161.43" x2="163.6" y2="161.43" gradientUnits="userSpaceOnUse">
      <stop offset="0" stop-color="#0082fa"/>
      <stop offset="1" stop-color="#00f2fe"/>
    </linearGradient>
    <linearGradient id="linear-gradient-2" x1="80.95" y1="-2747.49" x2="274.31" y2="-2747.49" gradientTransform="translate(0 -2561.34) scale(1 -1)" xlink:href="#linear-gradient"/>
    <linearGradient id="linear-gradient-3" x1="80.95" y1="-2730.44" x2="274.31" y2="-2730.44" gradientTransform="translate(0 -2561.34) scale(1 -1)" xlink:href="#linear-gradient"/>
  </defs>
  <path class="cls-1" d="m162.15,162.93c1.93,0,1.93-3,0-3s-1.93,3,0,3h0Z"/>
  <g>
    <path class="cls-2" d="m104.4,114.37c1.2-1.51,2.47-2.96,3.75-4.41.06-.07.19-.09.24-.16.11-.14.3-.23.41-.37l.11-.14c.89-.82,1.83-1.71,2.92-2.49,3.85-2.92,7.84-5.14,12.06-6.6,13.51-4.74,28.55-1.82,40.35,9.31,16.47,15.44,14.99,40.31,1.85,56.84-16.61,24.64-45.16,59.02-5.63,89.82,7.11,5.54,12.38,10.1,34.77,16.57-14.64,2.7-28.22,1.86-43.33-2-10.69-6.03-27.5-18.95-33.21-36.4-8.64-26.46,15.21-66.01,26.74-81.25,15.83-21.08-9.78-43.91-28.64-18.43-9.86,13.28-27.1,50.86-21.11,78.73,3.5,15.81,8.17,27.33,26.69,43.15-3.43-2.03-6.77-4.32-10-6.9-43.03-40.08-38.03-102.05-7.96-135.27Z"/>
    <path class="cls-3" d="m250.86,240.89c-1.2,1.51-2.47,2.96-3.75,4.41-.06.07-.19.09-.24.16-.11.14-.3.23-.41.37l-.11.14c-.89.82-1.83,1.71-2.92,2.49-3.85,2.92-7.84,5.14-12.06,6.6-13.51,4.74-28.55,1.82-40.35-9.31-16.47-15.44-14.99-40.31-1.85-56.84,16.61-24.64,45.16-59.02,5.63-89.82-7.11-5.54-12.38-10.1-34.77-16.57,14.64-2.7,28.22-1.86,43.33,2,10.69,6.03,27.5,18.95,33.21,36.4,8.64,26.46-15.21,66.01-26.74,81.25-15.83,21.08,9.78,43.91,28.64,18.43,9.86-13.28,27.1-50.86,21.11-78.73-3.5-15.81-8.17-27.33-26.69-43.15,3.43,2.03,6.77,4.32,10,6.9,43.03,40.08,38.03,102.05,7.96,135.27Z"/>
  </g>
  <g>
    <path class="cls-4" d="m59.04,285.13c-.45-.26-.88-.36-1.31-.31-.43.05-.85.26-1.26.64-.5.46-.76.98-.81,1.56-.03.63.43,1.46,1.36,2.47l1.42,1.53,3.43-3.17-1.42-1.53c-.5-.54-.97-.93-1.41-1.19Z"/>
    <path class="cls-4" d="m336.49,159.66c.21.47.51.81.88,1.02.38.21.84.28,1.4.21.67-.08,1.19-.35,1.56-.79.39-.5.5-1.43.33-2.81l-.26-2.07-4.64.58.26,2.07c.09.72.24,1.32.45,1.79Z"/>
    <path class="cls-4" d="m208.91,20.98c.51-.06.92-.23,1.24-.53.32-.29.53-.72.63-1.27.13-.66.03-1.24-.28-1.73-.35-.53-1.21-.92-2.57-1.18l-2.05-.39-.87,4.59,2.05.39c.72.13,1.33.17,1.84.11Z"/>
    <path class="cls-4" d="m280.2,299.49c-.54-.68-1.12-1.22-1.73-1.64-.61-.41-1.22-.67-1.82-.79-.6-.11-1.18-.1-1.72.05-.55.14-1.06.41-1.55.8-.62.49-1.07,1.1-1.34,1.83-.27.72-.3,1.53-.09,2.42.21.89.69,1.81,1.45,2.76.7.88,1.45,1.52,2.24,1.94.8.42,1.59.58,2.37.49.79-.09,1.52-.41,2.2-.95.48-.38.86-.83,1.12-1.34.27-.51.41-1.06.43-1.64.02-.58-.1-1.21-.36-1.89-.26-.68-.66-1.35-1.2-2.03Z"/>
    <path class="cls-4" d="m93.83,306.91c-.3-.48-.72-.89-1.23-1.23-.66-.44-1.38-.68-2.15-.71-.77-.04-1.55.18-2.34.65-.78.47-1.51,1.21-2.18,2.22-.62.93-1,1.84-1.16,2.72-.15.88-.07,1.69.26,2.41.33.72.85,1.32,1.57,1.8.52.34,1.06.56,1.62.66.56.1,1.13.07,1.69-.1.56-.16,1.13-.47,1.69-.93.57-.45,1.09-1.04,1.56-1.76.48-.72.82-1.44,1.03-2.15.21-.71.27-1.36.19-1.97-.08-.61-.27-1.15-.57-1.63Z"/>
    <path class="cls-4" d="m322.73,118.51c-.58.45-1.01.95-1.3,1.49-.29.54-.45,1.09-.48,1.66-.03.56.06,1.14.28,1.72.28.74.72,1.35,1.33,1.83.61.48,1.37.76,2.28.83.91.08,1.94-.1,3.07-.53,1.05-.4,1.89-.91,2.53-1.54.64-.63,1.04-1.33,1.19-2.11.16-.78.08-1.57-.23-2.38-.22-.58-.53-1.07-.93-1.48-.4-.41-.88-.71-1.43-.91-.55-.2-1.19-.28-1.91-.23-.73.04-1.49.21-2.3.52-.81.31-1.51.69-2.09,1.14Z"/>
    <path class="cls-4" d="m245.07,322.56c-.66.31-1.18.63-1.56.98-.38.34-.61.73-.7,1.15-.09.42-.01.89.23,1.4.28.61.69,1.03,1.23,1.24.59.22,1.52.04,2.77-.54l1.89-.88-1.96-4.24-1.9.88Z"/>
    <path class="cls-4" d="m177.63,0C79.69,0,0,79.68,0,177.63s79.69,177.63,177.63,177.63,177.63-79.68,177.63-177.63S275.58,0,177.63,0Zm166.66,168.4c.02.46-.11.85-.4,1.15-.29.31-.76.48-1.39.51l-12.03.68c-.63.04-1.11-.08-1.44-.35-.33-.27-.51-.64-.54-1.1-.02-.44.11-.82.41-1.13.3-.31.76-.48,1.39-.51l12.03-.68c.62-.04,1.1.08,1.43.35.33.27.5.62.53,1.08Zm-2.32-16.01c.33.27.53.75.62,1.43l.49,3.94c.15,1.17.17,2.08.07,2.73-.09.64-.32,1.22-.66,1.72-.34.5-.79.91-1.34,1.21-.55.31-1.19.51-1.91.6-1.55.19-2.78-.14-3.69-.99-.92-.85-1.49-2.22-1.73-4.11l-.35-2.82-4.3.54c-.61.08-1.1-.01-1.45-.26-.35-.25-.56-.6-.61-1.04-.06-.46.05-.86.33-1.18.28-.32.72-.52,1.33-.6l11.7-1.46c.68-.08,1.18.01,1.51.29Zm-9.89-36.51c.67.73,1.21,1.64,1.62,2.73.56,1.48.74,2.87.54,4.16-.2,1.29-.75,2.42-1.65,3.39-.9.97-2.1,1.73-3.6,2.3-1.11.42-2.17.65-3.19.69-1.02.04-1.97-.11-2.86-.46-.89-.35-1.68-.89-2.36-1.63-.68-.74-1.24-1.67-1.66-2.8-.43-1.12-.62-2.19-.6-3.21.03-1.02.26-1.95.69-2.79.43-.84,1.05-1.59,1.86-2.24.81-.65,1.75-1.18,2.82-1.59,1.1-.41,2.17-.64,3.2-.67,1.04-.03,1.99.13,2.86.48.87.35,1.64.9,2.31,1.63Zm-4.19-9.69c.4.13.7.39.89.8.2.42.22.83.06,1.22-.16.39-.52.72-1.1.99l-10.91,5.11c-.57.27-1.06.34-1.47.21-.4-.13-.71-.41-.9-.83-.19-.4-.2-.8-.04-1.2.17-.39.53-.73,1.1-.99l10.91-5.11c.57-.26,1.05-.33,1.46-.21Zm-6.38-12.21c.41.1.72.35.94.75.23.41.27.81.14,1.22-.13.4-.48.75-1.03,1.06l-9.77,5.34,3.01,5.51c.24.44.32.84.23,1.19-.08.35-.29.61-.61.79-.33.18-.66.21-.99.09-.33-.12-.62-.4-.86-.85l-3.59-6.56c-.32-.59-.43-1.09-.31-1.49.12-.4.47-.77,1.06-1.09l10.33-5.65c.55-.3,1.03-.4,1.44-.3Zm-7.43-11.63c.41.06.75.29,1,.67.26.39.34.79.24,1.2-.1.41-.41.79-.94,1.14l-9.29,6.13,3.46,5.24c.28.42.39.8.33,1.16-.06.36-.24.64-.55.84-.31.21-.64.26-.98.17-.34-.09-.65-.35-.93-.77l-4.12-6.24c-.37-.56-.51-1.05-.43-1.46.09-.41.41-.8.97-1.17l9.83-6.49c.52-.35.99-.49,1.41-.42Zm-4.31-5.79c.42.04.77.24,1.04.6.28.37.39.77.31,1.18-.07.42-.36.82-.87,1.2l-9.61,7.27c-.5.38-.97.55-1.4.51-.42-.04-.78-.25-1.06-.62-.27-.36-.36-.74-.29-1.16.08-.42.37-.82.87-1.2l9.61-7.27c.5-.38.96-.55,1.38-.51Zm-22.67-5.7l9.05-8.04c.5-.44.95-.61,1.36-.51s.8.38,1.2.82l.64.72c.38.43.62.78.72,1.04.09.26.08.53-.04.81-.12.27-.36.67-.71,1.2l-4.79,7.23,7.74-3.9c.56-.29.99-.47,1.27-.56.29-.09.56-.07.81.06.25.13.57.4.95.83l.64.72c.39.44.62.87.68,1.29.06.41-.17.84-.67,1.29l-9.05,8.04c-.44.39-.85.58-1.24.58s-.73-.17-1.02-.49c-.27-.31-.39-.66-.35-1.05.04-.39.28-.78.72-1.17l7.89-7.01-8.91,4.64c-.58.3-1.02.51-1.3.63-.29.12-.61.16-.98.12-.36-.04-.7-.24-1.02-.6-.24-.27-.39-.55-.44-.84-.05-.29-.03-.57.06-.83.09-.27.22-.53.39-.78.17-.25.34-.52.53-.8l5.66-8.3-7.89,7.01c-.44.39-.85.58-1.24.58-.39,0-.73-.16-1.02-.48-.28-.31-.4-.66-.36-1.05.04-.39.28-.78.72-1.17Zm-14.62-22.35c.28-.38.64-.66,1.06-.84.42-.18.86-.24,1.32-.19.45.05.87.21,1.24.48.59.44.94,1.01,1.05,1.72.11.71-.04,1.36-.47,1.93-.65.88-1.45,1.24-2.42,1.08-.96-.16-1.67-.68-2.1-1.56-.44-.88-.33-1.76.31-2.63Zm-20.15-19.48c.4-.14.8-.1,1.2.11.41.22.67.54.78.94.11.41.01.89-.29,1.45l-5.27,9.81,5.53,2.97c.44.24.72.53.84.87.12.34.09.67-.08,1-.18.33-.44.54-.78.62-.34.08-.74,0-1.19-.24l-6.59-3.54c-.59-.32-.95-.68-1.07-1.08-.12-.4-.02-.9.3-1.49l5.57-10.38c.3-.55.64-.9,1.04-1.04Zm-14.25-5.74c.23-.21.5-.31.81-.32.31,0,.67.08,1.07.25l7.51,3.23c.45.19.75.44.88.74.13.29.13.61,0,.93-.14.33-.37.55-.67.66-.31.11-.69.06-1.14-.13l-6.41-2.76-1.48,3.45,5.91,2.54c.43.19.72.42.85.71.13.29.13.59-.01.91-.14.32-.35.54-.65.65-.3.11-.67.07-1.11-.12l-5.9-2.54-1.72,4,6.63,2.85c.45.19.74.44.88.75.14.31.13.63-.02.98-.14.33-.37.55-.69.66-.32.11-.7.07-1.15-.12l-7.73-3.32c-.62-.27-1.01-.6-1.16-.99-.15-.39-.1-.89.17-1.51l4.54-10.56c.18-.41.38-.72.61-.93Zm-14.05-4.74c.09-.28.3-.49.62-.63.32-.14.66-.15,1.02-.03.41.14.69.36.84.68.15.32.31.87.5,1.65l1.02,4.25,3.49-2.76c.29-.23.54-.43.74-.6.21-.17.39-.3.56-.4.17-.1.35-.16.52-.17.18-.02.37,0,.58.07.37.12.63.33.8.63.16.3.19.6.09.9-.14.44-.6.96-1.36,1.55l-4.27,3.34,1.52,5.76c.14.51.23.92.26,1.24.03.31.01.6-.07.84-.08.23-.2.42-.38.58-.18.15-.38.25-.63.3s-.49.03-.75-.06c-.28-.09-.49-.23-.65-.4-.15-.18-.26-.38-.32-.59-.06-.21-.17-.62-.33-1.22l-1.23-4.87-4.08,3.25c-.32.26-.55.44-.68.55-.13.1-.28.2-.45.28-.17.08-.35.13-.54.15-.2.02-.41-.02-.64-.09-.36-.12-.62-.32-.78-.62-.17-.3-.18-.65-.04-1.07.16-.49.6-1.01,1.32-1.56l4.82-3.67-1.34-5.12c-.12-.49-.2-.91-.23-1.25-.03-.34,0-.64.09-.91Zm-9.43,10.79l3.04-11.66c.16-.61.41-1.03.77-1.25.36-.23.75-.29,1.19-.18.45.12.78.36.98.73.2.37.22.87.06,1.48l-3.04,11.66c-.16.61-.42,1.03-.78,1.26-.36.23-.76.29-1.21.17-.43-.11-.75-.36-.94-.74-.2-.38-.22-.87-.06-1.48Zm-13.87-2.85l2.2-11.58c.13-.67.37-1.12.73-1.35.36-.23.88-.28,1.55-.15l3.91.74c1.15.22,2.03.48,2.62.77.58.29,1.06.67,1.43,1.15.37.48.62,1.03.74,1.65.12.62.12,1.29-.02,2-.29,1.53-.98,2.6-2.07,3.21-1.09.61-2.57.74-4.44.38l-2.79-.53-.81,4.25c-.12.61-.35,1.04-.69,1.3-.35.26-.74.35-1.17.27-.46-.09-.8-.31-1.02-.68-.22-.36-.27-.85-.16-1.45Zm-20.5-13.46c.03-.5.1-.89.23-1.17.15-.31.38-.55.7-.73.32-.18.65-.26,1.01-.24.28.02.51.07.71.18.19.1.36.23.5.39.14.16.28.37.43.62.14.25.29.51.44.79l5.46,9.32.49-9.08c.03-.59.18-1.03.45-1.31.27-.28.62-.41,1.05-.39.44.02.79.19,1.03.5.24.31.35.76.31,1.35l-.65,12.01c-.07,1.34-.66,1.98-1.78,1.92-.28-.01-.53-.07-.74-.16-.22-.09-.42-.23-.6-.41-.19-.18-.36-.4-.51-.64-.15-.24-.31-.49-.46-.74l-5.32-9.21-.49,8.95c-.03.58-.19,1.02-.48,1.3-.29.28-.64.41-1.07.39-.44-.02-.78-.19-1.03-.51-.25-.32-.36-.76-.33-1.34l.64-11.78Zm-17.95,3.08c.29-1,.73-1.86,1.33-2.58.6-.72,1.35-1.29,2.25-1.7.9-.41,1.93-.65,3.1-.71,1.58-.08,2.96.17,4.13.75,1.17.58,2.08,1.45,2.72,2.61.65,1.15,1.01,2.53,1.09,4.13.06,1.18-.04,2.26-.31,3.24-.27.98-.71,1.84-1.31,2.59-.6.74-1.36,1.32-2.27,1.75-.91.42-1.97.67-3.17.73-1.2.06-2.27-.07-3.24-.41-.96-.34-1.78-.84-2.45-1.51-.67-.67-1.19-1.49-1.56-2.46-.37-.97-.59-2.03-.65-3.17-.06-1.17.05-2.26.34-3.26Zm-6.94-3.24c.24-.35.59-.55,1.04-.61.46-.06.86.05,1.18.32.33.27.53.72.61,1.35l1.54,11.95c.08.63,0,1.12-.25,1.46-.25.35-.6.55-1.06.61-.44.06-.82-.05-1.15-.33-.33-.28-.53-.72-.61-1.35l-1.54-11.95c-.08-.62,0-1.11.24-1.45Zm-13.55,2.35c.22-.36.55-.58,1-.67.46-.09.86,0,1.2.24.34.25.57.68.69,1.31l2.11,10.93,6.17-1.19c.49-.09.89-.05,1.2.14.31.19.5.46.57.83.07.37,0,.69-.22.97-.22.28-.57.47-1.07.56l-7.35,1.42c-.66.13-1.17.07-1.51-.16-.35-.24-.58-.69-.71-1.34l-2.23-11.57c-.12-.61-.07-1.1.15-1.46Zm-13.38,3.54c.19-.38.5-.63.94-.75.45-.13.85-.08,1.21.14.36.22.63.63.8,1.24l3,10.72,6.05-1.69c.48-.13.89-.12,1.21.04s.54.42.63.78c.1.36.06.69-.13.98-.19.3-.53.51-1.02.65l-7.2,2.02c-.65.18-1.16.17-1.52-.04-.37-.21-.64-.63-.82-1.28l-3.18-11.34c-.17-.6-.16-1.09.03-1.47Zm-6.77,2.31c.17-.39.46-.66.89-.81.44-.15.85-.13,1.22.07.37.2.67.59.88,1.19l3.97,11.38c.21.6.23,1.09.06,1.48-.17.39-.47.66-.91.82-.42.15-.82.12-1.2-.09-.38-.2-.67-.6-.87-1.19l-3.97-11.38c-.21-.59-.23-1.08-.06-1.47Zm-17.33,7.31c.22-.35.61-.65,1.15-.89l.88-.39c.53-.23.93-.35,1.21-.36.28,0,.53.08.76.28.23.2.53.55.92,1.04l5.41,6.77-1.34-8.56c-.1-.62-.15-1.09-.14-1.39,0-.3.11-.55.3-.75.2-.2.56-.42,1.09-.65l.88-.39c.54-.24,1.02-.32,1.43-.25.41.07.75.42,1.02,1.03l4.87,11.08c.23.53.29.99.17,1.36-.12.37-.38.65-.78.82-.38.17-.74.17-1.1,0-.36-.16-.66-.51-.89-1.05l-4.25-9.66,1.68,9.91c.11.64.18,1.12.2,1.43.03.31-.04.63-.19.97-.15.33-.44.59-.88.79-.33.15-.64.2-.94.16-.29-.04-.55-.15-.78-.31-.23-.17-.43-.37-.63-.61-.19-.24-.39-.49-.6-.75l-6.17-7.93,4.25,9.67c.23.54.29.99.17,1.36-.12.37-.38.65-.77.82-.38.17-.75.17-1.11.01-.36-.16-.66-.51-.89-1.05l-4.87-11.08c-.27-.61-.29-1.09-.07-1.45Zm-20.9,16.68c.19-.42.48-.76.86-1.02.6-.42,1.25-.57,1.96-.45.71.12,1.27.47,1.69,1.06.62.89.71,1.77.25,2.63-.46.87-1.17,1.37-2.15,1.5-.97.14-1.77-.24-2.4-1.13-.27-.39-.43-.81-.46-1.27-.03-.46.05-.9.24-1.31Zm-22.18,13.06c.34-.32.72-.46,1.15-.43.42.03.85.28,1.28.74l7.61,8.13,4.59-4.29c.37-.34.73-.51,1.09-.52.36,0,.67.13.92.4.26.28.37.59.33.94-.03.35-.23.7-.61,1.04l-5.46,5.11c-.49.46-.95.68-1.37.67-.42-.02-.86-.27-1.31-.76l-8.05-8.6c-.43-.46-.65-.9-.65-1.32,0-.42.15-.79.49-1.1Zm-10.52,11.9c.09-.29.28-.61.58-.93l5.46-6.09c.33-.37.66-.57.98-.6.32-.03.62.07.88.31.27.24.4.52.41.85,0,.32-.16.67-.49,1.04l-4.66,5.2,2.8,2.51,4.29-4.79c.32-.35.63-.55.94-.58.31-.03.6.07.86.3.26.23.4.51.4.82,0,.32-.15.65-.47,1.01l-4.29,4.79,3.24,2.9,4.82-5.38c.33-.36.66-.56.99-.59.33-.03.64.08.92.33.27.24.41.53.41.86,0,.33-.16.68-.48,1.05l-5.62,6.27c-.45.5-.88.77-1.3.78-.42.02-.88-.19-1.38-.64l-8.56-7.67c-.33-.3-.56-.59-.68-.88-.12-.29-.14-.58-.04-.87Zm-9.04,10.91c.26-.34.56-.54.91-.58.34-.04.92-.02,1.73.05l4.35.39-1.5-4.19c-.13-.35-.24-.65-.33-.9-.09-.25-.16-.47-.19-.66-.04-.19-.04-.38,0-.55.04-.17.12-.35.25-.52.23-.31.52-.5.85-.55.33-.06.63,0,.88.2.37.28.72.87,1.04,1.78l1.8,5.12,5.94.4c.53.03.94.08,1.25.15.31.07.57.18.77.33.19.15.34.33.43.54.09.22.12.45.08.69-.04.24-.13.47-.3.69-.18.23-.37.4-.59.48-.22.09-.44.13-.66.12-.22,0-.64-.03-1.26-.07l-5-.39,1.77,4.91c.14.39.25.66.3.82.06.16.09.33.12.51.03.19.02.37-.03.56-.05.19-.14.38-.29.58-.23.3-.5.48-.84.54-.33.06-.67-.04-1.02-.31-.41-.31-.76-.89-1.05-1.74l-1.94-5.74-5.28-.36c-.51-.04-.93-.1-1.25-.18-.33-.08-.61-.2-.84-.37-.23-.18-.36-.44-.39-.79-.03-.35.07-.67.29-.97Zm-3.48,5.18c.26-.39.59-.62,1.01-.69.42-.07.89.07,1.42.41l10.07,6.62c.53.35.84.73.95,1.14.1.41.03.81-.23,1.2-.24.37-.58.59-1,.66-.42.07-.9-.07-1.42-.41l-10.07-6.62c-.52-.34-.84-.72-.94-1.13-.11-.41-.03-.8.21-1.18Zm-7.33,12.73l1.96-3.46c.58-1.02,1.1-1.76,1.57-2.23.46-.46.98-.79,1.55-.99.57-.2,1.18-.25,1.8-.17.62.08,1.25.3,1.89.66,1.36.77,2.15,1.77,2.37,3,.23,1.23-.13,2.67-1.07,4.33l-1.4,2.47,3.77,2.14c.54.3.88.66,1.01,1.08s.09.81-.13,1.2c-.23.41-.55.65-.97.75-.42.09-.89-.01-1.42-.31l-10.26-5.81c-.59-.34-.94-.71-1.04-1.13-.1-.42.02-.92.36-1.51Zm-9.82,20.94c.1-.26.24-.46.39-.61s.34-.26.53-.35c.2-.08.44-.15.72-.2.29-.05.58-.11.89-.16l10.59-2.15-8.44-3.41c-.55-.22-.91-.51-1.09-.85-.18-.34-.19-.72-.03-1.12.17-.41.44-.68.81-.81.37-.13.83-.08,1.38.14l11.15,4.51c1.25.5,1.66,1.27,1.24,2.3-.1.26-.23.48-.39.65-.16.18-.35.32-.59.44-.23.12-.49.21-.77.27-.28.07-.56.13-.85.2l-10.44,2.05,8.31,3.36c.54.22.9.51,1.08.87.18.36.19.74.03,1.14-.17.41-.44.68-.82.81-.38.13-.84.09-1.37-.13l-10.94-4.42c-.46-.19-.81-.39-1.03-.6-.24-.24-.39-.54-.46-.9-.07-.36-.04-.7.1-1.03Zm-4.07,12.63c.43-1.53,1.12-2.75,2.04-3.67.93-.92,2.04-1.5,3.35-1.73,1.3-.24,2.72-.14,4.26.3,1.14.32,2.13.77,2.97,1.34.84.57,1.52,1.26,2.02,2.07.51.81.82,1.72.92,2.71.11,1,0,2.08-.33,3.23-.33,1.15-.81,2.13-1.44,2.93-.63.81-1.37,1.42-2.22,1.83-.85.42-1.79.65-2.83.69-1.04.04-2.11-.1-3.21-.41-1.13-.32-2.12-.78-2.97-1.37-.85-.59-1.52-1.29-2.01-2.1-.49-.8-.78-1.7-.88-2.68-.1-.98.01-2.04.33-3.16Zm-2.98,12.25c.09-.46.32-.8.68-1.02.36-.22.85-.27,1.47-.14l11.81,2.4c.62.13,1.06.36,1.31.71.25.35.33.75.23,1.2-.09.44-.32.77-.68.98-.37.22-.86.27-1.47.14l-11.81-2.4c-.61-.13-1.04-.36-1.29-.7-.25-.34-.33-.73-.24-1.18Zm-1.6,12.56c.35-.24.83-.32,1.46-.24l11.03,1.52.86-6.22c.07-.5.24-.86.52-1.09.28-.23.6-.32.96-.27.37.05.66.22.85.52.19.3.26.69.19,1.2l-1.02,7.41c-.09.67-.31,1.13-.64,1.38-.34.25-.83.33-1.5.24l-11.67-1.61c-.62-.08-1.07-.29-1.34-.61-.27-.32-.38-.71-.31-1.17.06-.46.27-.81.61-1.06Zm-1.14,13.77c.33-.27.8-.39,1.43-.36l11.12.6.34-6.27c.03-.5.17-.88.43-1.13.26-.25.57-.37.94-.35.37.02.67.17.89.45.22.28.32.67.29,1.18l-.4,7.47c-.04.67-.21,1.15-.53,1.43-.31.28-.81.4-1.47.36l-11.76-.63c-.63-.03-1.09-.2-1.38-.5-.3-.3-.43-.68-.41-1.14.02-.46.2-.83.52-1.1Zm-.13,7.19c.31-.29.78-.44,1.41-.45l12.05-.11c.63,0,1.11.13,1.42.42.32.29.48.66.48,1.13,0,.45-.15.81-.47,1.1-.31.29-.78.44-1.41.44l-12.05.11c-.63,0-1.1-.13-1.42-.41-.31-.28-.47-.65-.48-1.1,0-.47.15-.84.45-1.13Zm15.45,46.55c-.17.97-.78,1.61-1.83,1.92-.45.14-.9.15-1.35.04-.45-.11-.84-.33-1.17-.63-.34-.31-.57-.69-.71-1.13-.21-.7-.15-1.37.18-2.01.33-.64.84-1.07,1.53-1.27,1.04-.32,1.9-.12,2.58.58.68.7.93,1.54.76,2.51Zm.66-26.74c-.26.29-.69.46-1.28.51l-12.06,1.06c-.67.06-1.13-.08-1.39-.4-.26-.32-.42-.78-.47-1.37l-.08-.96c-.05-.57-.04-1,.04-1.27.08-.27.25-.48.51-.63.26-.15.69-.33,1.28-.54l8.15-2.95-8.54-1.48c-.62-.11-1.08-.21-1.36-.31-.28-.1-.49-.28-.61-.53-.13-.25-.21-.66-.26-1.24l-.08-.96c-.05-.59.02-1.07.22-1.43.2-.37.63-.58,1.3-.64l12.06-1.06c.58-.05,1.03.04,1.34.27.31.24.49.57.53,1.01.03.41-.08.76-.35,1.05-.27.29-.69.46-1.27.51l-10.52.93,9.92,1.59c.64.1,1.12.19,1.42.27.3.08.59.24.85.49.27.25.42.61.46,1.09.03.36-.02.67-.15.93-.13.26-.31.47-.55.63-.23.16-.49.29-.78.4-.29.1-.59.21-.9.33l-9.49,3.29,10.52-.92c.58-.05,1.03.04,1.34.27.31.24.49.57.53,1,.04.42-.08.77-.34,1.06Zm1.67,54.84c-.4-.12-.7-.39-.9-.81-.2-.42-.22-.83-.06-1.22.16-.39.52-.72,1.09-.99l10.07-4.74-2.68-5.68c-.21-.45-.27-.85-.16-1.2.11-.35.33-.6.66-.76.34-.16.67-.17,1-.03.32.14.59.44.81.9l3.18,6.77c.29.61.36,1.11.21,1.51-.14.39-.52.73-1.12,1.02l-10.66,5.02c-.56.27-1.05.34-1.45.22Zm8.05,13.13c-.31.03-.59-.05-.84-.23-.25-.18-.49-.46-.71-.83l-4.12-7.07c-.25-.43-.34-.8-.27-1.12.07-.32.26-.56.56-.74.31-.18.62-.23.93-.13.31.1.59.36.84.79l3.51,6.03,3.25-1.89-3.23-5.55c-.24-.41-.32-.77-.26-1.08.07-.31.25-.55.55-.73.3-.17.6-.22.91-.13.3.09.58.34.82.75l3.23,5.55,3.76-2.19-3.63-6.24c-.25-.42-.33-.79-.26-1.12.07-.33.27-.58.59-.77.31-.18.63-.22.95-.13.32.1.61.36.85.78l4.24,7.28c.34.58.45,1.08.34,1.48-.11.41-.45.78-1.03,1.11l-9.93,5.79c-.39.23-.73.35-1.04.38Zm9.08,11.49c-.17.29-.38.52-.61.68-.24.17-.53.21-.87.14-.34-.08-.62-.27-.84-.58-.25-.35-.34-.7-.27-1.04.07-.34.26-.89.58-1.63l1.71-4.02-4.45.14c-.37.02-.69.03-.95.04-.27.01-.49,0-.69-.02-.19-.02-.37-.08-.52-.17-.15-.09-.29-.23-.42-.4-.22-.32-.31-.65-.26-.98.05-.34.2-.6.46-.78.38-.27,1.05-.42,2.01-.44l5.42-.14,2.21-5.53c.19-.49.36-.88.52-1.15.16-.28.34-.49.56-.63.2-.14.41-.22.65-.24.23-.02.46.02.68.13.22.11.41.27.57.49.17.24.26.48.28.71.02.23-.01.45-.09.66-.08.21-.23.6-.46,1.18l-1.91,4.64,5.21-.18c.41-.02.7-.03.87-.03.17,0,.34,0,.53.04.19.03.36.1.53.2.17.1.32.25.46.45.22.31.3.63.26.96-.04.34-.24.63-.61.88-.42.3-1.08.45-1.98.47l-6.06.09-1.97,4.92c-.19.47-.38.85-.56,1.14Zm3.97,5.14c-.49.39-.94.58-1.37.55-.42-.03-.77-.21-1.06-.57-.29-.36-.41-.75-.35-1.17s.34-.83.83-1.22l9.38-7.56c.49-.4.95-.58,1.38-.55.43.03.78.22,1.08.59.28.35.39.73.32,1.15-.06.42-.34.83-.83,1.22l-9.38,7.56Zm8.82,11.68c-.43-.03-.87-.3-1.33-.8l-2.7-2.92c-.8-.86-1.35-1.59-1.64-2.18-.3-.58-.45-1.17-.47-1.78-.01-.61.11-1.2.38-1.77.27-.57.67-1.1,1.21-1.6,1.14-1.06,2.34-1.51,3.58-1.35,1.24.16,2.51.94,3.8,2.33l1.93,2.08,3.18-2.94c.45-.42.9-.63,1.33-.63.43,0,.8.16,1.11.49.31.34.45.73.41,1.15-.04.42-.28.84-.73,1.26l-8.66,8c-.5.46-.97.68-1.39.65Zm17.58,15.12c-.3.16-.63.21-.99.17-.36-.04-.68-.18-.95-.4-.21-.18-.37-.37-.46-.56-.1-.2-.15-.4-.17-.61-.02-.21,0-.46.03-.75.03-.29.07-.58.11-.9l1.16-10.74-5.8,7.01c-.38.46-.76.72-1.14.78-.38.07-.74-.04-1.07-.31-.34-.28-.52-.62-.53-1.01,0-.39.17-.82.55-1.27l7.67-9.26c.86-1.03,1.71-1.2,2.57-.49.21.18.38.37.5.57.12.2.2.43.24.69.04.26.05.53.03.82-.02.29-.04.58-.07.87l-1.21,10.57,5.72-6.9c.37-.45.76-.7,1.16-.76.4-.06.76.05,1.09.32.34.28.51.62.52,1.02.01.4-.17.82-.54,1.27l-7.53,9.09c-.32.39-.61.65-.88.8Zm17.16,7.44c-.82.63-1.69,1.05-2.61,1.27-.92.22-1.86.23-2.82.02-.97-.2-1.94-.63-2.91-1.27-1.32-.88-2.28-1.9-2.87-3.06-.59-1.16-.8-2.4-.63-3.71.17-1.31.7-2.63,1.58-3.97.65-.98,1.38-1.79,2.18-2.42.8-.63,1.67-1.06,2.59-1.3.92-.24,1.88-.25,2.86-.05.99.2,1.98.64,2.98,1.3,1,.66,1.78,1.41,2.35,2.26.58.85.93,1.74,1.07,2.67.14.93.07,1.9-.21,2.9-.28,1-.73,1.98-1.37,2.94-.65.98-1.39,1.78-2.21,2.42Zm10.57-4.79l-5.9,10.51c-.31.55-.66.89-1.06,1.02-.4.13-.8.09-1.19-.13-.4-.23-.66-.55-.76-.96-.1-.41,0-.89.32-1.44l5.9-10.51c.31-.55.67-.9,1.07-1.03.4-.13.81-.08,1.22.15.39.22.63.54.73.95.1.42,0,.9-.32,1.44Zm11.46,6.06l-5.12,10.61c-.27.56-.6.93-.99,1.09-.39.16-.79.14-1.21-.06-.42-.2-.69-.51-.82-.91-.13-.4-.05-.89.22-1.46l4.84-10.03-5.66-2.73c-.45-.22-.74-.5-.88-.83-.14-.34-.12-.67.04-1,.16-.34.41-.56.75-.65.34-.09.74-.03,1.2.19l6.74,3.25c.61.29.98.64,1.12,1.04s.06.9-.23,1.5Zm6.7,16.83c-.38.19-.78.2-1.21.04-.43-.17-.73-.45-.89-.84-.16-.39-.13-.88.1-1.48l3.99-10.39-5.87-2.25c-.47-.18-.78-.43-.94-.75-.16-.32-.18-.66-.05-1,.14-.35.37-.59.7-.71.33-.12.73-.09,1.2.09l6.98,2.68c.63.24,1.03.56,1.2.94.17.39.13.89-.11,1.51l-4.22,11c-.22.59-.52.97-.9,1.16Zm11.26-10.53l-3.6,11.5c-.19.6-.46,1-.83,1.22-.37.21-.76.25-1.2.12-.44-.14-.76-.4-.94-.78-.18-.38-.18-.88,0-1.48l3.6-11.5c.19-.6.47-1.01.84-1.23.37-.21.78-.25,1.22-.11.43.13.73.39.91.78.18.39.18.88,0,1.48Zm17.33,4.17l-2.69,11.8c-.15.65-.42,1.05-.81,1.2s-.88.16-1.45.03l-.94-.21c-.56-.13-.96-.27-1.19-.43-.23-.16-.38-.39-.44-.68-.06-.29-.1-.75-.12-1.39l-.31-8.66-4.03,7.68c-.29.56-.53.96-.71,1.2-.18.24-.41.38-.69.42-.28.04-.7,0-1.26-.13l-.93-.21c-.58-.13-1.01-.35-1.3-.65-.29-.3-.36-.78-.21-1.43l2.69-11.8c.13-.57.35-.97.67-1.2.32-.23.69-.29,1.12-.19.4.09.7.31.89.65.19.34.23.8.09,1.37l-2.35,10.29,4.55-8.96c.3-.58.53-1,.69-1.27.17-.26.41-.49.73-.67.32-.18.71-.21,1.18-.11.35.08.63.23.84.43.21.21.35.44.44.71.08.27.13.55.14.86.01.31.02.62.03.96l.23,10.04,2.35-10.29c.13-.57.35-.97.67-1.2.32-.23.69-.29,1.11-.2.41.09.71.31.9.65.19.34.22.8.09,1.38Zm25.84,10.87c-.24.39-.56.7-.96.92-.4.23-.83.34-1.29.33-.73-.01-1.35-.27-1.86-.79-.51-.51-.76-1.13-.75-1.85.02-1.09.46-1.85,1.34-2.28.88-.43,1.75-.42,2.62.04.87.46,1.29,1.23,1.28,2.32,0,.48-.13.91-.38,1.3ZM37.09,177.63c0-77.49,63.04-140.54,140.54-140.54s140.54,63.04,140.54,140.54-63.04,140.54-140.54,140.54S37.09,255.12,37.09,177.63Zm166.45,164.69c-.24.35-.58.55-1.04.61-.46.06-.86-.04-1.18-.31-.33-.27-.53-.72-.61-1.35l-1.45-11.04-6.23.82c-.5.06-.89,0-1.19-.21-.3-.21-.47-.49-.52-.86-.05-.37.04-.69.27-.96.23-.27.6-.43,1.1-.5l7.42-.97c.67-.09,1.17,0,1.5.26.33.26.54.72.63,1.38l1.53,11.68c.08.62,0,1.1-.24,1.45Zm14.9-3.65c-.07.3-.23.55-.48.73-.25.19-.58.33-1.01.42l-7.99,1.76c-.48.11-.86.08-1.14-.08-.28-.16-.46-.42-.54-.76-.08-.35-.02-.66.16-.93.19-.27.52-.45,1-.56l6.82-1.5-.81-3.67-6.28,1.38c-.46.1-.83.08-1.1-.08-.27-.16-.45-.41-.52-.74-.08-.34-.02-.64.15-.91.18-.26.5-.45.97-.55l6.28-1.38-.94-4.25-7.05,1.55c-.48.11-.86.07-1.15-.09-.29-.17-.48-.43-.56-.8-.08-.35-.02-.67.17-.94.19-.27.53-.46,1-.57l8.22-1.81c.66-.15,1.17-.1,1.52.12.35.23.6.67.75,1.32l2.47,11.23c.1.43.11.8.04,1.11Zm14.05-3.47c-.18.3-.45.51-.81.62-.41.13-.77.11-1.07-.06-.31-.17-.76-.52-1.37-1.05l-3.3-2.86-1.23,4.28c-.1.36-.18.66-.25.92-.07.25-.14.47-.23.65-.08.18-.19.33-.33.44-.13.12-.3.21-.51.28-.37.12-.71.1-1.01-.05-.3-.15-.51-.38-.6-.68-.14-.45-.07-1.13.2-2.05l1.53-5.2-4.59-3.8c-.41-.33-.72-.61-.93-.85-.21-.24-.36-.48-.43-.72-.07-.23-.08-.46-.03-.69.05-.23.16-.43.33-.61.17-.18.39-.31.64-.39.28-.09.53-.1.76-.05.23.06.43.15.6.29.17.14.5.4.98.8l3.84,3.24,1.42-5.02c.11-.4.19-.68.23-.84.05-.16.12-.32.2-.49.09-.17.21-.31.35-.44.15-.13.34-.23.57-.3.36-.11.69-.1.99.05.3.14.52.43.65.85.15.49.1,1.17-.16,2.03l-1.77,5.79,4.08,3.38c.39.33.69.62.91.88.22.25.38.52.46.79.09.28.04.57-.14.87Zm5.92-2.4c-.15.39-.44.67-.86.84-.44.17-.84.16-1.22-.03-.38-.19-.68-.58-.91-1.17l-4.32-11.25c-.23-.59-.26-1.08-.1-1.48.16-.4.45-.68.89-.84.42-.16.82-.14,1.2.05.38.19.69.58.91,1.16l4.32,11.25c.22.58.26,1.07.11,1.47Zm13.69-6.26c-.16.4-.55.74-1.17,1.03l-3.61,1.67c-1.07.5-1.93.79-2.58.9-.64.1-1.25.07-1.84-.1-.58-.18-1.1-.48-1.56-.91-.46-.43-.84-.98-1.15-1.64-.66-1.41-.72-2.68-.18-3.82.53-1.13,1.66-2.1,3.39-2.9l2.57-1.19-1.82-3.93c-.26-.56-.33-1.05-.2-1.46s.4-.71.8-.9c.42-.2.83-.21,1.22-.04.39.17.72.53.97,1.08l4.96,10.7c.29.62.35,1.13.19,1.52Zm19.66-11.08c-.15.33-.38.59-.67.78-.23.15-.46.24-.68.27s-.43.02-.64-.03c-.21-.05-.44-.13-.71-.26-.26-.12-.53-.25-.82-.38l-9.86-4.41,4.88,7.68c.32.5.45.94.39,1.33-.06.38-.27.69-.63.92-.38.24-.75.3-1.13.19-.38-.11-.72-.42-1.04-.92l-6.45-10.15c-.72-1.13-.61-2,.33-2.6.24-.15.47-.25.7-.3.23-.05.47-.06.73-.02.26.04.52.12.79.22.27.11.53.22.81.33l9.68,4.4-4.81-7.56c-.31-.49-.44-.94-.37-1.34.07-.4.28-.71.64-.94.37-.23.75-.29,1.13-.18.39.11.73.41,1.04.9l6.33,9.96c.27.42.43.78.49,1.09.06.33,0,.67-.15,1Zm12.93-12.21c-.07.94-.35,1.84-.84,2.69-.49.86-1.19,1.65-2.1,2.38-1.24.99-2.5,1.59-3.79,1.79-1.29.21-2.53.03-3.73-.54-1.2-.56-2.29-1.47-3.29-2.72-.74-.93-1.28-1.86-1.64-2.82-.35-.96-.5-1.91-.44-2.86.06-.95.33-1.87.83-2.74.5-.88,1.21-1.69,2.15-2.44.94-.75,1.89-1.26,2.87-1.55.98-.29,1.94-.36,2.87-.2.93.15,1.83.51,2.7,1.09.87.57,1.66,1.3,2.38,2.2.73.92,1.27,1.87,1.62,2.84.35.98.49,1.93.42,2.87Zm6.61-3.17c-.34.32-.72.46-1.14.43-.42-.03-.85-.28-1.28-.74l-8.21-8.82c-.43-.46-.65-.91-.65-1.33,0-.43.17-.8.51-1.12.33-.3.7-.44,1.13-.4.43.04.85.28,1.28.74l8.21,8.82c.43.46.64.9.65,1.32,0,.42-.16.79-.49,1.1Zm9.73-9.81c-.32.34-.69.5-1.12.5-.42,0-.87-.22-1.32-.66l-8.09-7.65-4.32,4.56c-.34.36-.7.56-1.06.59-.36.03-.68-.09-.94-.34-.27-.26-.4-.56-.39-.91.01-.35.19-.71.54-1.08l5.14-5.44c.46-.49.9-.74,1.33-.75.42,0,.87.22,1.36.67l8.56,8.09c.45.43.7.85.73,1.28.03.42-.11.8-.42,1.13Zm8.87-10.62c-.29.36-.65.56-1.07.6-.42.03-.88-.15-1.38-.55l-8.69-6.95-3.92,4.91c-.31.39-.65.61-1,.67-.36.06-.68-.03-.97-.26-.29-.23-.45-.53-.47-.88-.02-.35.13-.73.45-1.12l4.67-5.84c.42-.53.84-.81,1.26-.86.42-.05.89.14,1.41.56l9.2,7.35c.49.39.77.8.84,1.21.07.42-.04.8-.33,1.16Zm4.24-5.82c-.27.38-.61.6-1.03.66-.42.06-.89-.09-1.41-.46l-9.86-6.92c-.52-.36-.82-.75-.91-1.17-.09-.42,0-.82.27-1.2.25-.36.6-.57,1.02-.63.43-.06.89.1,1.41.46l9.86,6.92c.51.36.81.75.91,1.16.09.41.01.81-.25,1.18Zm9.63-15.78l-.49.83c-.29.5-.55.83-.78,1-.22.17-.48.24-.78.21-.3-.03-.75-.13-1.36-.31l-8.34-2.36,6.07,6.18c.44.45.75.8.92,1.04.17.25.23.51.19.79-.04.28-.21.66-.5,1.16l-.49.82c-.3.51-.64.85-1.02,1.03-.38.18-.85.1-1.43-.24l-10.41-6.17c-.5-.3-.81-.63-.93-1.01-.12-.37-.07-.75.16-1.13.21-.35.51-.57.89-.65.39-.08.83.03,1.33.33l9.08,5.38-7.13-7.08c-.46-.46-.8-.81-1-1.05-.2-.24-.34-.53-.41-.89-.07-.36.02-.74.26-1.15.18-.31.41-.54.67-.67.26-.14.53-.2.81-.2.28,0,.57.05.86.13.29.08.6.17.92.26l9.63,2.86-9.09-5.38c-.5-.3-.81-.63-.93-1.01-.12-.37-.07-.75.15-1.12.21-.36.51-.58.89-.66.38-.08.83.03,1.34.33l10.41,6.17c.57.34.87.72.9,1.14.02.42-.11.88-.42,1.39Zm1.23-113.88c-.07-.27-.1-.52-.07-.76.02-.24.09-.47.21-.7.12-.23.27-.46.45-.68.18-.22.37-.44.56-.67l7.15-7.88-8.67,2.27c-.56.15-1.03.13-1.38-.06-.36-.18-.59-.48-.7-.89-.11-.42-.05-.8.17-1.13.23-.33.62-.57,1.18-.72l11.42-2.99c.48-.13.88-.17,1.18-.14.34.05.64.19.91.44.27.24.45.54.54.88.07.27.09.51.05.73-.04.21-.11.41-.22.6-.11.18-.26.38-.46.6-.19.21-.4.43-.61.66l-7.21,8.04,8.8-2.3c.57-.15,1.03-.14,1.38.03.35.17.58.46.69.88.11.43.06.81-.16,1.13-.22.32-.62.56-1.19.71l-11.64,3.04c-1.3.34-2.09-.03-2.37-1.11Zm6.67,86.88c-.24.69-.67,1.2-1.32,1.52-.64.33-1.3.37-1.98.14-1.03-.35-1.62-1.01-1.76-1.98-.14-.97.14-1.79.84-2.48.7-.68,1.57-.85,2.6-.5.45.15.83.41,1.12.76.3.35.49.75.58,1.2s.06.89-.08,1.33Zm10.1-25.36c-.36.23-.85.29-1.47.17l-10.95-2.01-1.13,6.18c-.09.49-.28.85-.57,1.07-.29.22-.61.3-.98.23-.37-.07-.65-.25-.83-.56-.18-.3-.23-.7-.13-1.2l1.35-7.36c.12-.66.36-1.11.7-1.35.35-.24.85-.29,1.51-.17l11.58,2.12c.62.11,1.05.34,1.31.67.26.33.34.73.26,1.18-.08.46-.3.8-.66,1.03Zm2.13-15.79l-.76,8.14c-.05.49-.19.85-.43,1.07-.24.22-.54.31-.89.28-.36-.03-.64-.18-.83-.44-.2-.26-.27-.64-.23-1.13l.65-6.95-3.74-.35-.6,6.4c-.04.47-.18.81-.41,1.02-.23.21-.52.3-.87.27-.35-.03-.62-.17-.82-.42-.2-.25-.27-.61-.23-1.09l.6-6.4-4.33-.41-.67,7.19c-.04.49-.19.84-.44,1.06-.25.23-.56.32-.93.28-.36-.03-.64-.18-.84-.45s-.28-.64-.23-1.13l.78-8.38c.06-.67.26-1.14.58-1.41.33-.27.82-.37,1.49-.31l11.45,1.07c.44.04.8.14,1.07.3.27.16.45.38.56.67.1.29.13.66.09,1.09Zm.27-5.61c-.24.25-.51.37-.83.37-.46,0-1.1-.27-1.89-.82l-4.49-3.04-5.02,3.22c-.44.29-.8.5-1.09.63-.29.13-.56.19-.82.19-.24,0-.47-.06-.67-.18s-.36-.29-.48-.5c-.12-.22-.18-.46-.17-.73,0-.29.06-.54.19-.74.12-.2.28-.36.46-.49.18-.13.53-.36,1.06-.7l4.25-2.67-4.34-2.89c-.35-.22-.59-.38-.73-.48-.14-.09-.27-.21-.4-.34-.13-.13-.24-.29-.31-.47-.08-.18-.11-.39-.11-.64,0-.38.12-.69.35-.93.23-.25.57-.37,1-.36.51,0,1.14.26,1.89.77l4.98,3.45,4.46-2.85c.43-.27.81-.47,1.11-.6.31-.13.61-.2.89-.2.29,0,.55.13.78.4.23.26.35.58.34.96,0,.43-.13.77-.39,1-.26.24-.73.57-1.42.99l-3.73,2.27,3.7,2.47c.31.2.58.38.8.52.22.14.41.28.55.42.14.13.25.28.33.45.07.16.11.35.11.57,0,.39-.12.71-.35.95Z"/>
    <path class="cls-4" d="m38.54,99.45c.36-.64.6-1.2.7-1.71.11-.5.08-.95-.1-1.34-.18-.4-.51-.73-1-1.01-.59-.33-1.16-.43-1.73-.3-.61.16-1.26.85-1.94,2.05l-1.03,1.82,4.06,2.3,1.03-1.82Z"/>
    <path class="cls-4" d="m19.82,136.38c.32.49.79.93,1.4,1.33.61.4,1.32.72,2.15.95.84.24,1.62.35,2.36.33.73-.02,1.38-.16,1.94-.42.55-.26,1.01-.61,1.37-1.04.36-.43.63-.95.8-1.55.22-.76.23-1.52.03-2.26-.2-.75-.64-1.42-1.33-2.03-.69-.61-1.61-1.07-2.78-1.4-1.08-.31-2.06-.4-2.95-.27-.89.12-1.63.45-2.22.98-.59.53-1,1.22-1.24,2.05-.17.6-.21,1.18-.13,1.75.08.57.28,1.1.61,1.58Z"/>
    <path class="cls-4" d="m166.54,23.22c.42.44.9.76,1.43.96.53.2,1.1.29,1.72.26.79-.04,1.51-.28,2.15-.71.64-.43,1.14-1.07,1.49-1.92.35-.85.49-1.88.43-3.08-.06-1.12-.29-2.08-.69-2.88-.4-.8-.95-1.39-1.64-1.78-.69-.38-1.47-.55-2.34-.51-.62.03-1.18.18-1.69.44-.51.26-.95.62-1.3,1.09-.35.46-.62,1.05-.81,1.75-.18.7-.25,1.49-.21,2.35.05.87.2,1.65.45,2.34.26.69.6,1.26,1.02,1.7Z"/>
  </g>
</svg>